                    <?xml version="1.0" encoding="utf-8"?>
                        <svg version="1.1" id="arrow" xmlns="http://www.w3.org/2000/svg" xmlns:xlink="http://www.w3.org/1999/xlink" x="0px" y="0px" viewBox="0 0 512 512" style="enable-background:new 0 0 512 512;" xml:space="preserve">
                            <path d="M256.8,513c-68.4,0-132.7-26.6-181-75c-48.4-48.4-75-112.6-75-181c0-68.4,26.6-132.7,75-181s112.6-75,181-75
                                c68.4,0,132.7,26.6,181,75c48.4,48.4,75,112.6,75,181c0,68.4-26.6,132.7-75,181C389.4,486.4,325.1,513,256.8,513z M256.8,17
                                c-132.3,0-240,107.7-240,240c0,132.3,107.7,240,240,240c132.3,0,240-107.7,240-240C496.8,124.7,389.1,17,256.8,17z"/>
                            <polygon class="bounce" points="258,358.7 114.2,214.8 126.3,202.8 258,334.5 393.2,199.3 405.3,211.4 "/>
                    </svg>